<?xml version="1.0" encoding="UTF-8" standalone="no"?>
<svg
   viewBox="0 0 110 114"
   version="1.1"
   id="svg1737"
   sodipodi:docname="lock-unlocked.svg"
   inkscape:version="1.2.2 (732a01da63, 2022-12-09)"
   xmlns:inkscape="http://www.inkscape.org/namespaces/inkscape"
   xmlns:sodipodi="http://sodipodi.sourceforge.net/DTD/sodipodi-0.dtd"
   xmlns="http://www.w3.org/2000/svg"
   xmlns:svg="http://www.w3.org/2000/svg"
   xmlns:rdf="http://www.w3.org/1999/02/22-rdf-syntax-ns#"
   xmlns:cc="http://creativecommons.org/ns#"
   xmlns:dc="http://purl.org/dc/elements/1.1/">
  <defs
     id="defs1741" />
  <sodipodi:namedview
     id="namedview1739"
     pagecolor="#505050"
     bordercolor="#ffffff"
     borderopacity="1"
     inkscape:showpageshadow="0"
     inkscape:pageopacity="0"
     inkscape:pagecheckerboard="1"
     inkscape:deskcolor="#505050"
     showgrid="false"
     inkscape:zoom="9.0087719"
     inkscape:cx="53.003895"
     inkscape:cy="44.734177"
     inkscape:window-width="2560"
     inkscape:window-height="1369"
     inkscape:window-x="-8"
     inkscape:window-y="-8"
     inkscape:window-maximized="1"
     inkscape:current-layer="g1735" />
  <title
     id="title1729">Shape + Shape</title>
  <g
     fill="#000"
     fill-rule="evenodd"
     id="g1735"
     style="fill:#ffffff">
    <path
       d="M0 44.208v69.752h110V44.208H0zm60.876 32.918V97.19h-11.89V77.12c-2.485-1.828-4.105-4.766-4.105-8.09 0-5.55 4.5-10.05 10.06-10.05s10.05 4.5 10.05 10.05c0 3.324-1.62 6.264-4.104 8.094l-.01.002z"
       id="path1731"
       style="fill:#ffffff" />
    <path
       d="M37.434 4.077c-22.27 9.453-32.697 35.26-23.244 57.53l16.69-7.084L94.963 27.32C85.51 5.05 59.702-5.375 37.434 4.078zm-6.68 50.5c-5.574-13.135.575-28.355 13.71-33.93s28.356.573 33.93 13.707L30.76 54.574l-.005.002z"
       id="path1733"
       style="fill:#ffffff" />
  </g>
  <metadata
     id="metadata1743">
    <rdf:RDF>
      <cc:Work
         rdf:about="">
        <dc:title>Shape + Shape</dc:title>
      </cc:Work>
    </rdf:RDF>
  </metadata>
</svg>
